<?xml version="1.0" standalone="no"?>
<!DOCTYPE svg PUBLIC "-//W3C//DTD SVG 20010904//EN"
 "http://www.w3.org/TR/2001/REC-SVG-20010904/DTD/svg10.dtd">
<svg version="1.0" xmlns="http://www.w3.org/2000/svg"
 width="748.000000pt" height="776.000000pt" viewBox="0 0 748.000000 776.000000"
 preserveAspectRatio="xMidYMid meet">

<g transform="translate(0.000000,776.000000) scale(0.100000,-0.100000)"
fill="#000000" stroke="none">
<path d="M3509 7408 c-773 -998 -1037 -1339 -1172 -1512 l-117 -151 6 -45 c3
-25 24 -94 46 -155 121 -331 334 -644 576 -848 152 -129 251 -191 407 -257
172 -73 287 -102 500 -124 220 -23 624 -16 805 14 30 5 89 14 130 21 90 15
252 48 413 84 65 15 124 24 131 22 7 -3 49 -54 92 -113 251 -341 408 -495 661
-647 192 -116 341 -163 488 -154 49 3 118 14 153 25 76 24 288 143 392 220
132 97 159 116 196 142 69 48 188 146 187 155 0 9 -196 159 -1109 845 -583
437 -719 547 -908 730 -213 208 -326 343 -815 980 -35 47 -126 164 -201 260
-75 96 -243 318 -374 493 -131 174 -242 317 -246 317 -4 0 -113 -136 -241
-302z"/>
<path d="M1130 4513 c-74 -12 -211 -72 -304 -131 -80 -51 -566 -405 -566 -411
0 -12 97 -87 945 -725 451 -339 852 -641 892 -672 151 -116 385 -363 550 -580
29 -38 101 -132 161 -209 59 -77 159 -207 222 -290 62 -82 136 -179 164 -215
28 -36 107 -139 175 -230 69 -91 188 -247 266 -346 77 -100 171 -222 210 -273
38 -50 73 -91 77 -91 8 0 114 132 253 315 54 72 146 191 205 265 58 74 142
183 187 241 86 113 177 230 258 334 28 35 89 115 137 177 48 62 124 161 170
220 46 59 138 179 205 267 l122 159 -15 57 c-43 165 -165 417 -296 612 -72
107 -122 167 -223 268 -280 281 -537 411 -935 472 -165 26 -630 25 -820 0
-154 -21 -454 -73 -497 -86 -15 -5 -72 -19 -125 -32 -80 -18 -100 -20 -113 -9
-9 7 -50 61 -91 119 -103 145 -110 154 -183 240 -187 222 -451 417 -694 512
-101 39 -246 57 -337 42z"/>
</g>
</svg>
